<svg id="vector" width="20" height="28" viewBox="0 0 20 28" fill="none" xmlns="http://www.w3.org/2000/svg">
<path d="M19.75 7.875C19.75 5.45781 17.932 3.5 15.6875 3.5C13.443 3.5 11.625 5.45781 11.625 7.875C11.625 9.86563 12.859 11.5445 14.5449 12.075C14.5145 12.9555 14.3316 13.6336 13.9863 14.093C13.2043 15.143 11.4828 15.318 9.65977 15.4984C8.22773 15.6406 6.74492 15.7937 5.53125 16.4227V8.54766C7.18164 7.98984 8.375 6.33281 8.375 4.375C8.375 1.95781 6.55703 0 4.3125 0C2.06797 0 0.25 1.95781 0.25 4.375C0.25 6.33281 1.44336 7.98984 3.09375 8.54766V19.4469C1.44336 20.0102 0.25 21.6672 0.25 23.625C0.25 26.0422 2.06797 28 4.3125 28C6.55703 28 8.375 26.0422 8.375 23.625C8.375 21.7656 7.29844 20.1742 5.775 19.5453C5.93242 19.2609 6.17109 19.0094 6.53164 18.8125C7.3543 18.3641 8.5832 18.2438 9.88828 18.1125C12.0312 17.8992 14.4586 17.6531 15.8906 15.7391C16.6016 14.7875 16.9621 13.5625 16.9875 12.0258C18.5922 11.4352 19.75 9.8 19.75 7.875ZM4.3125 3.5C4.75938 3.5 5.125 3.89375 5.125 4.375C5.125 4.85625 4.75938 5.25 4.3125 5.25C3.86562 5.25 3.5 4.85625 3.5 4.375C3.5 3.89375 3.86562 3.5 4.3125 3.5ZM4.3125 24.5C3.86562 24.5 3.5 24.1063 3.5 23.625C3.5 23.1437 3.86562 22.75 4.3125 22.75C4.75938 22.75 5.125 23.1437 5.125 23.625C5.125 24.1063 4.75938 24.5 4.3125 24.5ZM15.6875 7C16.1344 7 16.5 7.39375 16.5 7.875C16.5 8.35625 16.1344 8.75 15.6875 8.75C15.2406 8.75 14.875 8.35625 14.875 7.875C14.875 7.39375 15.2406 7 15.6875 7Z" fill="#FECE31"/>
</svg>
