<svg id="astronaut" width="24" height="27" viewBox="0 0 24 27" fill="none" xmlns="http://www.w3.org/2000/svg">
<path d="M3.31412 11.5994H4.01319C5.29224 14.5252 8.20245 16.5706 11.5994 16.5706C14.9964 16.5706 17.9066 14.5252 19.1857 11.5994H19.8847C20.3404 11.5994 20.7133 11.2266 20.7133 10.7709V5.79971C20.7133 5.34402 20.3404 4.97118 19.8847 4.97118H19.1857C17.9066 2.04543 14.9964 0 11.5994 0C8.20245 0 5.29224 2.04543 4.01319 4.97118H3.31412C2.85843 4.97118 2.48559 5.34402 2.48559 5.79971V10.7709C2.48559 11.2266 2.85843 11.5994 3.31412 11.5994ZM5.38545 7.04251C5.38545 5.8981 6.49878 4.97118 7.87104 4.97118H15.3278C16.7001 4.97118 17.8134 5.8981 17.8134 7.04251V8.2853C17.8134 11.0298 15.5867 13.2565 12.8422 13.2565H10.3566C7.61212 13.2565 5.38545 11.0298 5.38545 8.2853V7.04251ZM9.11383 10.7709L9.73523 8.9067L11.5994 8.2853L9.73523 7.6639L9.11383 5.79971L8.49243 7.6639L6.62824 8.2853L8.49243 8.9067L9.11383 10.7709ZM16.9642 16.6431C15.4158 17.6425 13.5775 18.2277 11.5994 18.2277C9.62131 18.2277 7.78301 17.6425 6.23469 16.6431C2.73933 17.0108 0 19.9365 0 23.5303V24.0274C0 25.3996 1.11334 26.513 2.48559 26.513H6.62824V23.1988C6.62824 22.2823 7.36874 21.5418 8.2853 21.5418H14.9135C15.8301 21.5418 16.5706 22.2823 16.5706 23.1988V26.513H20.7133C22.0855 26.513 23.1988 25.3996 23.1988 24.0274V23.5303C23.1988 19.9365 20.4595 17.0108 16.9642 16.6431ZM14.085 23.1988C13.6293 23.1988 13.2565 23.5717 13.2565 24.0274C13.2565 24.4831 13.6293 24.8559 14.085 24.8559C14.5407 24.8559 14.9135 24.4831 14.9135 24.0274C14.9135 23.5717 14.5407 23.1988 14.085 23.1988ZM9.11383 23.1988C8.65814 23.1988 8.2853 23.5717 8.2853 24.0274V26.513H9.94236V24.0274C9.94236 23.5717 9.56952 23.1988 9.11383 23.1988Z" fill="#FECE31"/>
</svg>
