<svg id="rocket" width="24" height="24" viewBox="0 0 24 24" fill="none" xmlns="http://www.w3.org/2000/svg">
<path d="M22.8871 0.865142C22.8332 0.61452 22.5854 0.36673 22.334 0.312924C20.8752 0 19.7329 0 18.5957 0C13.9182 0 11.1132 2.50127 9.01911 5.79971H4.29712C3.55641 5.80042 2.68604 6.33777 2.35392 6.99972L0.113983 11.4769C0.0447616 11.6296 0.00604168 11.7944 0 11.9619C0.000104153 12.2503 0.114744 12.5269 0.318714 12.7308C0.522684 12.9347 0.799287 13.0493 1.08771 13.0494H5.79138L4.77305 14.0674C4.25809 14.5822 4.1842 15.529 4.77305 16.1177L7.07954 18.4243C7.58503 18.9312 8.53654 19.0204 9.13106 18.4243L10.1494 17.4062V22.1114C10.1495 22.3998 10.2641 22.6764 10.4681 22.8803C10.6721 23.0842 10.9487 23.1988 11.2371 23.1988C11.4047 23.1926 11.5694 23.1539 11.7222 23.0849L16.1956 20.847C16.8585 20.5163 17.3967 19.6462 17.3967 18.905V14.1729C20.6861 12.0745 23.198 9.26099 23.198 4.60819C23.2023 3.46623 23.2023 2.32427 22.8871 0.865142ZM17.401 7.61212C17.0425 7.61203 16.6922 7.50566 16.3942 7.30646C16.0962 7.10726 15.8639 6.82417 15.7268 6.49299C15.5897 6.16181 15.5539 5.7974 15.6239 5.44586C15.6939 5.09432 15.8665 4.77142 16.12 4.51799C16.3735 4.26456 16.6964 4.09199 17.048 4.02209C17.3995 3.9522 17.7639 3.98812 18.0951 4.12531C18.4262 4.2625 18.7093 4.4948 18.9084 4.79284C19.1075 5.09088 19.2138 5.44127 19.2138 5.79971C19.2135 6.28038 19.0224 6.74128 18.6825 7.08113C18.3426 7.42097 17.8816 7.61196 17.401 7.61212Z" fill="#FECE31"/>
</svg>
