<svg id="identification" width="27" height="21" viewBox="0 0 27 21" fill="none" xmlns="http://www.w3.org/2000/svg">
<path d="M24.475 0H2.225C0.996615 0 0 0.996614 0 2.225V2.96667H26.7V2.225C26.7 0.996614 25.7034 0 24.475 0ZM0 18.5417C0 19.77 0.996615 20.7667 2.225 20.7667H24.475C25.7034 20.7667 26.7 19.77 26.7 18.5417V4.45H0V18.5417ZM16.3167 7.7875C16.3167 7.58354 16.4835 7.41666 16.6875 7.41666H23.3625C23.5665 7.41666 23.7333 7.58354 23.7333 7.7875V8.52916C23.7333 8.73312 23.5665 8.9 23.3625 8.9H16.6875C16.4835 8.9 16.3167 8.73312 16.3167 8.52916V7.7875ZM16.3167 10.7542C16.3167 10.5502 16.4835 10.3833 16.6875 10.3833H23.3625C23.5665 10.3833 23.7333 10.5502 23.7333 10.7542V11.4958C23.7333 11.6998 23.5665 11.8667 23.3625 11.8667H16.6875C16.4835 11.8667 16.3167 11.6998 16.3167 11.4958V10.7542ZM16.3167 13.7208C16.3167 13.5169 16.4835 13.35 16.6875 13.35H23.3625C23.5665 13.35 23.7333 13.5169 23.7333 13.7208V14.4625C23.7333 14.6665 23.5665 14.8333 23.3625 14.8333H16.6875C16.4835 14.8333 16.3167 14.6665 16.3167 14.4625V13.7208ZM8.15833 7.41666C9.79464 7.41666 11.125 8.74703 11.125 10.3833C11.125 12.0196 9.79464 13.35 8.15833 13.35C6.52203 13.35 5.19167 12.0196 5.19167 10.3833C5.19167 8.74703 6.52203 7.41666 8.15833 7.41666ZM3.11036 16.8822C3.49974 15.6909 4.61688 14.8333 5.93333 14.8333H6.31344C6.88359 15.0697 7.50474 15.2042 8.15833 15.2042C8.81193 15.2042 9.43771 15.0697 10.0032 14.8333H10.3833C11.6998 14.8333 12.8169 15.6909 13.2063 16.8822C13.3546 17.3411 12.9653 17.8 12.4832 17.8H3.83349C3.35141 17.8 2.96203 17.3365 3.11036 16.8822Z" fill="#FECE31"/>
</svg>
