<svg id="journal" width="24" height="27" viewBox="0 0 24 27" fill="none" xmlns="http://www.w3.org/2000/svg">
<path d="M22.7021 19.553C22.5362 20.2165 22.5362 22.5362 22.7021 23.3647C23.033 23.6956 23.1986 24.0271 23.1988 24.3591V25.1876C23.1988 26.0162 22.5362 26.513 21.8735 26.513H4.97118C2.15385 26.513 0 24.3591 0 21.5418V4.97118C0 2.15385 2.15385 0 4.97118 0H21.8735C22.7021 0 23.1988 0.496794 23.1988 1.32532V18.5594C23.1988 19.0562 23.0332 19.3874 22.7021 19.553ZM19.7189 19.8847H4.97118C4.14265 19.8847 3.31412 20.5474 3.31412 21.5418C3.31412 22.5362 3.97678 23.1988 4.97118 23.1988H19.7189V19.8847ZM6.62905 9.11464C6.62905 9.14134 6.63633 9.16562 6.63633 9.19232L8.55797 10.8736C8.62131 10.9292 8.66622 11.0027 8.68673 11.0843C8.70723 11.166 8.70234 11.252 8.67272 11.3309C8.6431 11.4097 8.59015 11.4776 8.52094 11.5256C8.45172 11.5736 8.36952 11.5993 8.2853 11.5994H8.28449C8.18536 11.5944 8.0903 11.5585 8.01263 11.4967L6.79087 10.4278C7.38881 12.9951 9.67859 14.9135 12.428 14.9135C15.1773 14.9135 17.4671 12.9951 18.0658 10.4278L16.8441 11.4967C16.7685 11.5624 16.6716 11.5986 16.5714 11.5986H16.5706C16.4529 11.5921 16.3418 11.5419 16.2591 11.4578C16.1974 11.3798 16.1615 11.2845 16.1563 11.1852C16.1628 11.0672 16.2134 10.9561 16.2979 10.8736L18.2196 9.19232C18.2204 9.16481 18.2277 9.14053 18.2277 9.11383C18.2277 8.54179 18.1192 7.99969 17.9655 7.47781L16.8643 8.5782C16.7866 8.65597 16.6812 8.69969 16.5713 8.69976C16.4614 8.69982 16.3559 8.65622 16.2782 8.57855C16.2004 8.50088 16.1566 8.39549 16.1566 8.28557C16.1565 8.17565 16.2 8.0702 16.2777 7.9924L17.6459 6.625C17.1283 5.54716 16.2897 4.65598 15.2453 4.07388C15.6697 4.75238 15.8301 5.5632 15.6958 6.3522C15.5616 7.14119 15.1421 7.85334 14.5171 8.35327C14.8758 8.72508 15.1284 9.18623 15.2486 9.68875C15.3687 10.1913 15.352 10.7168 15.2002 11.2107C15.0483 11.7045 14.767 12.1487 14.3853 12.497C14.0036 12.8452 13.5356 13.0849 13.0299 13.1909L12.9563 11.4158L13.6125 11.8624C13.6468 11.8858 13.6875 11.8982 13.729 11.898C13.7656 11.8982 13.8016 11.8887 13.8333 11.8704C13.865 11.8521 13.8913 11.8257 13.9094 11.7939C13.9275 11.7621 13.9369 11.7261 13.9365 11.6895C13.936 11.6529 13.9259 11.617 13.907 11.5857L13.4652 10.8445L14.3925 10.652C14.4391 10.6422 14.481 10.6167 14.5111 10.5797C14.5411 10.5427 14.5575 10.4965 14.5575 10.4489C14.5575 10.4012 14.5411 10.355 14.5111 10.318C14.481 10.281 14.4391 10.2555 14.3925 10.2458L13.4652 10.0532L13.907 9.31206C13.9259 9.28069 13.936 9.24486 13.9365 9.20826C13.9369 9.17166 13.9275 9.1356 13.9094 9.1038C13.8913 9.072 13.865 9.0456 13.8333 9.02731C13.8016 9.00902 13.7656 8.99951 13.729 8.99975C13.6879 9.00136 13.6478 9.01332 13.6125 9.03454L12.8778 9.53457L12.6351 3.71949C12.6327 3.66612 12.6099 3.61573 12.5713 3.5788C12.5327 3.54187 12.4814 3.52125 12.428 3.52125C12.3745 3.52125 12.3232 3.54187 12.2846 3.5788C12.246 3.61573 12.2232 3.66612 12.2208 3.71949L11.9813 9.4577L11.3599 9.03535C11.3209 9.00888 11.274 8.9965 11.227 9.00026C11.18 9.00402 11.1357 9.02369 11.1014 9.05602C11.0671 9.08836 11.0448 9.13143 11.0383 9.17813C11.0317 9.22482 11.0413 9.27235 11.0654 9.31287L11.5072 10.054L10.5799 10.2466C10.5333 10.2562 10.4914 10.2817 10.4614 10.3186C10.4313 10.3555 10.4149 10.4017 10.4149 10.4493C10.4149 10.4969 10.4313 10.543 10.4614 10.58C10.4914 10.6169 10.5333 10.6423 10.5799 10.652L11.5072 10.8453L11.0654 11.5857C11.0478 11.6183 11.0378 11.6546 11.0363 11.6917C11.0394 11.7479 11.0623 11.8012 11.101 11.8422C11.1395 11.8785 11.1905 11.8988 11.2434 11.8988C11.2849 11.8986 11.3254 11.8862 11.3599 11.8632L11.8964 11.4983L11.826 13.1926C11.3202 13.0863 10.8522 12.8465 10.4705 12.498C10.0889 12.1496 9.80752 11.7053 9.65572 11.2113C9.50391 10.7174 9.48721 10.1917 9.60734 9.68911C9.72747 9.18648 9.98006 8.72522 10.3388 8.35327C9.71364 7.85328 9.29407 7.14091 9.15995 6.3517C9.02583 5.56249 9.18651 4.75151 9.61144 4.07307C8.56695 4.65536 7.72814 5.54646 7.20999 6.6242L8.5782 7.9924C8.65556 8.07015 8.69893 8.17541 8.6988 8.28509C8.69866 8.39477 8.65503 8.49992 8.57747 8.57748C8.49992 8.65503 8.39477 8.69866 8.28509 8.6988C8.17541 8.69893 8.07015 8.65556 7.9924 8.5782L6.8912 7.477C6.73666 7.99969 6.62824 8.54179 6.62905 9.11464Z" fill="#FECE31"/>
</svg>
