<svg id="jedi_order" width="24" height="24" viewBox="0 0 24 24" fill="none" xmlns="http://www.w3.org/2000/svg">
<path d="M20.6154 17.9803C25.5803 11.659 21.5059 5.91231 21.5059 5.91231C23.8563 10.3543 19.3626 14.7394 19.3626 14.7394C24.7986 5.86054 16.2304 0.683385 16.2304 0.683385C21.2471 4.44718 15.7075 10.5562 15.7075 10.5562C20.1495 18.7568 12.156 22.4689 12.156 22.4689C12.156 22.4689 12.1353 21.5939 12.0421 18.032C12.2647 18.265 13.8282 19.9062 13.8282 19.9062L12.5753 17.4522L15.8162 16.9811L12.5753 16.51L13.6211 13.6366L11.9955 16.0129C11.8816 11.4726 11.5917 0.217441 11.5865 0.124252C11.5865 0.176023 11.2966 11.4622 11.1775 16.0129L9.55186 13.6366L10.5976 16.51L7.35674 16.9811L10.5976 17.4522L9.34477 19.9062L11.1309 18.032C11.0377 21.5939 11.017 22.4689 11.017 22.4689C11.017 22.4689 3.02346 18.7568 7.46546 10.5562C7.46546 10.5562 1.9259 4.442 6.94257 0.683385C6.94257 0.683385 -1.62563 5.85537 3.81039 14.7394C3.81039 14.7394 -0.683385 10.3491 1.66704 5.91231C1.66704 5.91231 -2.40738 11.659 2.55752 17.9803C2.55752 17.9803 1.2011 17.1467 0 13.9576C0 13.9576 0.874939 23.4473 11.4933 23.5716H11.7056C22.3187 23.4473 23.1988 13.9576 23.1988 13.9576C21.977 17.1416 20.6154 17.9803 20.6154 17.9803Z" fill="#FECE31"/>
</svg>
